<svg width="24" height="24" viewBox="0 0 24 24" fill="none" xmlns="http://www.w3.org/2000/svg">
<path d="M21 12C21 16.9706 16.9706 21 12 21C7.02944 21 3 16.9706 3 12C3 7.02944 7.02944 3 12 3C16.9706 3 21 7.02944 21 12Z" stroke="#59bcb3" stroke-width="2" stroke-linecap="round" stroke-linejoin="round"/>
<path d="M10.3029 9.69706C10.897 9.10303 11.194 8.80602 11.5365 8.69474C11.8377 8.59685 12.1623 8.59685 12.4635 8.69474C12.806 8.80602 13.103 9.10303 13.6971 9.69706L14.3029 10.3029C14.897 10.897 15.194 11.194 15.3053 11.5365C15.4032 11.8377 15.4032 12.1623 15.3053 12.4635C15.194 12.806 14.897 13.103 14.3029 13.6971L13.6971 14.3029C13.103 14.897 12.806 15.194 12.4635 15.3053C12.1623 15.4032 11.8377 15.4032 11.5365 15.3053C11.194 15.194 10.897 14.897 10.3029 14.3029L9.69706 13.6971C9.10303 13.103 8.80602 12.806 8.69474 12.4635C8.59685 12.1623 8.59685 11.8377 8.69474 11.5365C8.80602 11.194 9.10303 10.897 9.69706 10.3029L10.3029 9.69706Z" stroke="#F98784" stroke-width="2" stroke-linecap="round" stroke-linejoin="round"/>
</svg>
